<?xml version="1.0" standalone="no"?>
<!DOCTYPE svg PUBLIC "-//W3C//DTD SVG 20010904//EN"
 "http://www.w3.org/TR/2001/REC-SVG-20010904/DTD/svg10.dtd">
<svg version="1.0" xmlns="http://www.w3.org/2000/svg"
 width="256.000000pt" height="256.000000pt" viewBox="0 0 256.000000 256.000000"
 preserveAspectRatio="xMidYMid meet">
<metadata>
Created by potrace 1.11, written by Peter Selinger 2001-2013
</metadata>
<g transform="translate(0.000000,256.000000) scale(0.100000,-0.100000)"
fill="#000000" stroke="none">
<path d="M1516 2432 c-5 -8 -37 -12 -91 -12 l-83 0 -11 -32 c-5 -18 -49 -159
-96 -313 -48 -154 -92 -289 -99 -300 -7 -11 -10 -28 -8 -37 3 -16 16 -18 102
-18 54 0 101 4 104 9 16 25 214 676 207 681 -4 3 -10 12 -13 20 -3 10 -6 11
-12 2z"/>
<path d="M763 2423 l-82 -4 -57 -62 c-84 -90 -233 -271 -362 -439 -62 -80
-119 -149 -127 -152 -8 -3 -11 -13 -8 -25 5 -20 13 -21 108 -21 l103 0 56 75
56 75 160 0 c87 0 161 -4 164 -8 3 -5 6 -30 7 -58 4 -83 6 -84 119 -84 70 0
100 4 100 12 0 31 -55 359 -81 487 -31 147 -51 213 -66 209 -4 -1 -45 -4 -90
-5z m-14 -283 c5 -47 11 -96 13 -110 l3 -25 -122 -3 c-80 -2 -123 1 -123 8 0
5 6 10 14 10 8 0 53 50 101 111 48 61 91 107 95 102 5 -4 13 -46 19 -93z"/>
<path d="M1808 2422 c-31 -4 -59 -9 -61 -12 -3 -3 -49 -147 -103 -320 -55
-178 -104 -320 -113 -327 -11 -8 -12 -12 -3 -13 6 0 12 -7 12 -15 0 -12 18
-15 100 -15 l99 0 39 123 39 122 54 0 54 0 40 -80 c22 -44 48 -99 58 -122 l18
-43 110 0 c68 0 109 4 109 10 0 12 -82 180 -112 227 -23 38 -19 48 19 56 16 3
52 21 82 39 92 56 127 159 82 246 -27 53 -48 69 -132 98 -63 23 -93 27 -204
30 -71 1 -156 -1 -187 -4z m252 -143 c56 -13 93 -45 84 -73 -18 -58 -69 -85
-184 -97 -93 -9 -137 -4 -106 13 9 5 25 42 37 83 23 78 26 81 94 83 17 1 50
-3 75 -9z"/>
<path d="M152 1547 c-26 -12 -72 -104 -96 -196 -16 -55 -16 -74 -6 -145 10
-62 10 -88 1 -104 -27 -51 53 -111 122 -91 44 12 2223 12 2246 -1 30 -16 88 8
100 42 5 15 7 28 3 28 -4 0 -77 -1 -162 -2 -426 -7 -2300 -7 -2300 -1 0 5 3
18 6 31 6 20 12 22 74 22 45 0 70 4 74 13 3 6 5 -3 3 -20 -3 -26 0 -33 14 -33
9 0 19 8 21 18 5 17 20 20 128 25 68 4 496 7 951 7 778 0 829 -1 838 -17 6
-10 11 -13 11 -8 0 6 5 3 11 -5 8 -12 9 -11 4 7 -6 21 -5 21 150 22 120 1 155
-1 156 -11 0 -7 7 21 14 62 9 47 11 87 5 110 -4 19 -8 29 -9 23 -1 -10 -253
-13 -1226 -13 -674 0 -1225 1 -1225 3 0 2 7 28 16 58 22 74 60 146 83 159 14
7 376 9 1140 8 747 -2 1117 0 1110 7 -15 15 -2226 17 -2257 2z"/>
<path d="M276 825 c-83 -29 -128 -88 -141 -186 -6 -42 -3 -58 19 -103 27 -55
55 -82 136 -128 67 -39 86 -63 74 -96 -20 -59 -121 -78 -215 -42 -29 10 -56
17 -61 14 -4 -3 -15 -20 -24 -37 -9 -18 -21 -35 -27 -39 -7 -4 -4 -15 6 -32
26 -40 137 -70 237 -64 98 6 162 36 205 97 27 38 30 51 30 115 0 102 -33 155
-129 206 -38 21 -75 46 -83 56 -20 27 -16 62 12 89 19 20 34 25 75 25 28 0 67
-7 87 -15 51 -22 57 -20 81 30 34 71 25 87 -61 108 -85 21 -167 21 -221 2z"/>
<path d="M903 826 c-59 -19 -103 -49 -157 -106 -55 -58 -81 -113 -101 -208
-19 -89 -19 -168 2 -227 21 -64 103 -149 158 -164 59 -16 173 -13 230 7 l50
17 -1 54 c-1 29 -8 64 -15 77 -11 22 -14 23 -29 9 -10 -9 -44 -20 -76 -26
-120 -21 -174 26 -174 152 0 98 23 161 78 219 73 75 108 81 268 43 18 -4 25 4
44 52 27 67 24 73 -59 98 -63 20 -159 21 -218 3z"/>
<path d="M1588 832 l-58 -3 -38 -57 c-54 -80 -186 -303 -271 -460 -40 -72 -80
-136 -89 -142 -14 -8 -14 -11 -4 -18 8 -5 12 -13 10 -18 -1 -5 29 -10 69 -12
l72 -3 38 73 38 73 117 3 117 3 7 -36 c3 -19 4 -45 1 -56 -11 -43 12 -59 87
-59 l69 0 -7 87 c-16 212 -71 588 -90 613 -8 11 -26 14 -68 12z m-17 -289 c5
-49 10 -97 11 -108 3 -19 -3 -20 -92 -22 -52 0 -87 1 -78 4 10 2 45 54 79 114
34 61 64 108 67 105 3 -3 9 -45 13 -93z"/>
<path d="M2051 830 c-24 -3 -48 -12 -52 -20 -5 -8 -38 -152 -75 -320 -37 -171
-73 -313 -82 -322 -10 -12 -11 -18 -4 -18 7 0 12 -7 12 -15 0 -12 14 -15 64
-15 39 0 67 5 74 13 5 6 29 100 52 207 23 107 46 201 50 209 6 11 15 1 33 -35
32 -64 137 -329 137 -347 0 -29 36 -48 86 -45 l48 3 74 332 c43 193 72 342 68
356 -5 22 -9 23 -63 19 -32 -2 -62 -8 -67 -12 -5 -5 -26 -87 -47 -182 -21 -95
-41 -183 -44 -195 -7 -28 -25 -30 -25 -4 0 37 -165 383 -188 393 -4 2 -27 1
-51 -2z"/>
</g>
</svg>
